<svg width="200" height="200" fill="none" xmlns="http://www.w3.org/2000/svg"><g clip-path="url(#a)"><circle cx="100" cy="100" r="100" fill="#fff"/><path d="M103.885 134.596a14.568 14.568 0 0 1-5.28.985c-4.833 0-11.456-3.312-14.857-6.713V81.522c3.67-2.953 8.502-5.37 13.156-5.37 2.148 0 4.296.448 6.355 1.254-1.074-5.013-3.759-6.266-10.65-7.429l-8.861 5.37V62.28c-10.203 3.311-20.943 6.355-29.535 7.787V74.9c9.308 1.252 10.561 1.879 10.561 12.082v77.775c0 10.382-1.074 11.546-12.083 12.62v5.191h45.466v-5.191c-13.335-1.253-14.32-2.238-14.32-13.336v-22.285c2.596 1.074 6.534 2.417 11.278 2.417 3.043-.627 5.996-1.522 8.86-2.596.089-1.611.089-3.49.089-5.638v-1.343h-.179Zm33.473-37.321c0-7.787-2.416-15.574-7.07-21.57v45.645c4.385-6.802 7.07-14.857 7.07-24.075Z" fill="#000"/><path d="M106.391 64.07c10.561 0 18.706 4.654 23.897 11.635V53.867c-12.262 4.117-26.671 7.16-40.365 8.86v6.713c.985.179 1.79.269 2.685.448l4.565-2.775c3.311-2.058 6.444-3.043 9.218-3.043Zm-18.347 91.38v7.16h58.354v-7.16c-14.857-1.701-16.11-3.133-16.11-19.422v-14.767c-6.176 9.487-15.752 16.378-26.492 20.406-.448 11.456-3.133 12.53-15.752 13.783Zm15.841-20.854c8.324-3.222 13.694-14.051 13.694-29.445 0-16.021-6.623-24.792-14.32-27.835.537 2.416.626 5.728.626 10.382v46.898Z" fill="#000"/><path d="M115.431 36.862c8.681 0 15.394-6.981 15.394-15.126 0-8.681-6.802-15.393-15.215-15.393s-15.305 6.712-15.305 15.393c0 8.145 6.981 15.126 15.126 15.126Z" fill="#933"/></g><defs><clipPath id="a"><path fill="#fff" d="M0 0h200v200H0z"/></clipPath></defs></svg>