<?xml version="1.0" standalone="no"?>
<!DOCTYPE svg PUBLIC "-//W3C//DTD SVG 20010904//EN"
 "http://www.w3.org/TR/2001/REC-SVG-20010904/DTD/svg10.dtd">
<svg version="1.0" xmlns="http://www.w3.org/2000/svg"
 width="700.000000pt" height="700.000000pt" viewBox="0 0 700.000000 700.000000"
 preserveAspectRatio="xMidYMid meet">
<metadata>
Created by potrace 1.14, written by Peter Selinger 2001-2017
</metadata>
<g transform="translate(0.000000,700.000000) scale(0.100000,-0.100000)"
fill="#000000" stroke="none">
<path d="M3975 6769 c-246 -31 -436 -232 -460 -485 -32 -333 293 -627 622
-562 259 51 438 263 437 518 -1 328 -276 571 -599 529z"/>
<path d="M4410 5068 c-174 -55 -442 -121 -676 -167 -210 -42 -512 -91 -557
-91 l-27 0 0 -119 c0 -115 1 -119 23 -125 52 -14 82 -5 188 60 199 119 296
145 473 125 146 -16 244 -44 361 -101 121 -59 210 -124 298 -221 l67 -73 0
377 c0 296 -3 377 -12 376 -7 -1 -69 -19 -138 -41z"/>
<path d="M2750 4763 c-243 -75 -512 -146 -695 -184 l-155 -33 0 -82 c0 -93 -5
-88 90 -99 158 -20 234 -72 261 -176 20 -77 21 -3104 1 -3190 -26 -112 -100
-164 -267 -188 -44 -7 -95 -14 -112 -17 l-33 -5 0 -89 0 -90 800 0 800 0 0 90
0 89 -32 5 c-18 3 -60 8 -93 11 -178 19 -288 59 -329 123 -45 67 -48 101 -53
615 -4 421 -3 487 9 487 8 0 41 -9 74 -20 81 -28 135 -40 228 -50 86 -9 160 4
305 54 41 15 77 26 79 26 9 0 -8 -165 -22 -218 -45 -169 -139 -220 -468 -257
l-58 -6 0 -125 0 -124 1020 0 1020 0 0 125 c0 69 -3 125 -6 125 -4 0 -54 7
-113 16 -292 42 -370 94 -417 276 -14 52 -17 139 -21 480 l-5 417 -61 -82
c-130 -173 -321 -341 -530 -465 -95 -56 -295 -152 -317 -152 -6 0 -10 47 -10
120 l0 120 43 21 c139 70 257 217 337 419 106 268 123 710 39 1020 -45 168
-165 359 -280 446 -61 47 -148 99 -154 92 -2 -2 0 -69 5 -148 5 -80 10 -528
10 -997 l0 -852 -55 -17 c-70 -20 -192 -20 -269 1 -115 30 -278 117 -353 188
l-33 31 0 827 0 826 58 40 c77 55 163 97 251 123 62 19 88 22 179 17 60 -2
126 -12 150 -20 39 -15 42 -15 42 1 0 37 -53 124 -92 152 -43 32 -133 64 -219
80 l-57 11 -150 -91 c-82 -49 -153 -90 -156 -90 -3 0 -7 101 -8 224 l-3 223
-175 -54z"/>
<path d="M4561 3550 l-1 -795 35 55 c48 77 120 243 149 347 92 323 82 642 -30
920 -35 88 -97 200 -133 243 l-20 25 0 -795z"/>
</g>
</svg>
