<svg version="1.1" xmlns="http://www.w3.org/2000/svg" xmlns:xlink="http://www.w3.org/1999/xlink" x="0px" y="0px" viewBox="0 0 200 200" xml:space="preserve" class="logo">
<g>
	<path d="M104.9,144.8c-1.8,0.7-3.8,1.1-5.9,1.1c-5.4,0-12.8-3.7-16.6-7.5V85.5c4.1-3.3,9.5-6,14.7-6c2.4,0,4.8,0.5,7.1,1.4
		c-1.2-5.6-4.2-7-11.9-8.3l-9.9,6V64c-11.4,3.7-23.4,7.1-33,8.7v5.4c10.4,1.4,11.8,2.1,11.8,13.5v86.9c0,11.6-1.2,12.9-13.5,14.1
		v5.8h50.8v-5.8c-14.9-1.4-16-2.5-16-14.9v-24.9c2.9,1.2,7.3,2.7,12.6,2.7c3.4-0.7,6.7-1.7,9.9-2.9c0.1-1.8,0.1-3.9,0.1-6.3V144.8z"
		/>
	<path d="M142.3,103.1c0-8.7-2.7-17.4-7.9-24.1v51C139.3,122.4,142.3,113.4,142.3,103.1z"/>
	<path d="M107.7,66c11.8,0,20.9,5.2,26.7,13V54.6c-13.7,4.6-29.8,8-45.1,9.9v7.5c1.1,0.2,2,0.3,3,0.5l5.1-3.1
		C101.1,67.1,104.6,66,107.7,66z"/>
	<path d="M87.2,168.1v8h65.2v-8c-16.6-1.9-18-3.5-18-21.7v-16.5c-6.9,10.6-17.6,18.3-29.6,22.8C104.3,165.5,101.3,166.7,87.2,168.1z
		"/>
	<path d="M104.9,144.8c9.3-3.6,15.3-15.7,15.3-32.9c0-17.9-7.4-27.7-16-31.1c0.6,2.7,0.7,6.4,0.7,11.6V144.8z"/>
	<path class="circle" d="M117.8,35.6c9.7,0,17.2-7.8,17.2-16.9C135,9,127.4,1.5,118,1.5S100.9,9,100.9,18.7C100.9,27.8,108.7,35.6,117.8,35.6z"/>
</g>
</svg>
