<svg width="200" height="200" viewBox="0 0 200 200" fill="none" xmlns="http://www.w3.org/2000/svg">
<g clip-path="url(#clip0_241_98)">
<circle cx="100" cy="100" r="100" fill="white"/>
<path d="M103.885 134.596C102.274 135.223 100.484 135.581 98.605 135.581C93.772 135.581 87.149 132.269 83.748 128.868V81.5225C87.4175 78.569 92.2505 76.1525 96.9045 76.1525C99.0525 76.1525 101.2 76.6 103.259 77.4055C102.185 72.3935 99.5 71.1405 92.6085 69.977L83.748 75.347V62.28C73.545 65.5915 62.805 68.6345 54.213 70.0665V74.8995C63.521 76.1525 64.774 76.779 64.774 86.982V164.757C64.774 175.139 63.7 176.303 52.6915 177.377V182.568H98.1575V177.377C84.822 176.124 83.8375 175.139 83.8375 164.041V141.756C86.433 142.83 90.371 144.173 95.1145 144.173C98.1575 143.546 101.111 142.651 103.975 141.577C104.064 139.966 104.064 138.087 104.064 135.939V134.596H103.885Z" fill="black"/>
<path d="M137.358 97.2745C137.358 89.488 134.942 81.7015 130.288 75.705V121.35C134.673 114.548 137.358 106.493 137.358 97.2745Z" fill="black"/>
<path d="M106.391 64.07C116.952 64.07 125.097 68.724 130.288 75.705V53.867C118.026 57.984 103.617 61.027 89.9234 62.7275V69.44C90.9079 69.619 91.7134 69.7085 92.6084 69.8875L97.1729 67.113C100.484 65.0545 103.617 64.07 106.391 64.07Z" fill="black"/>
<path d="M88.0439 155.45V162.61H146.398V155.45C131.541 153.749 130.288 152.317 130.288 136.028V121.261C124.112 130.748 114.536 137.639 103.796 141.667C103.348 153.123 100.663 154.197 88.0439 155.45Z" fill="black"/>
<path d="M103.885 134.596C112.209 131.374 117.579 120.545 117.579 105.151C117.579 89.13 110.956 80.359 103.259 77.316C103.796 79.7325 103.885 83.044 103.885 87.698V134.596Z" fill="black"/>
<path d="M115.431 36.862C124.112 36.862 130.825 29.881 130.825 21.7365C130.825 13.055 124.023 6.34253 115.61 6.34253C107.197 6.34253 100.305 13.055 100.305 21.7365C100.305 29.881 107.286 36.862 115.431 36.862Z" fill="#993333"/>
</g>
<defs>
<clipPath id="clip0_241_98">
<rect width="200" height="200" fill="white"/>
</clipPath>
</defs>
</svg>
